<svg width="78" height="78" viewBox="0 0 78 78" fill="none" xmlns="http://www.w3.org/2000/svg">
<path d="M39 0.25C17.5938 0.25 0.25 17.5938 0.25 39C0.25 60.4062 17.5938 77.75 39 77.75C60.4062 77.75 77.75 60.4062 77.75 39C77.75 17.5938 60.4062 0.25 39 0.25ZM61.5 43.375C61.5 44.4062 60.6562 45.25 59.625 45.25H45.25V59.625C45.25 60.6562 44.4062 61.5 43.375 61.5H34.625C33.5938 61.5 32.75 60.6562 32.75 59.625V45.25H18.375C17.3438 45.25 16.5 44.4062 16.5 43.375V34.625C16.5 33.5938 17.3438 32.75 18.375 32.75H32.75V18.375C32.75 17.3438 33.5938 16.5 34.625 16.5H43.375C44.4062 16.5 45.25 17.3438 45.25 18.375V32.75H59.625C60.6562 32.75 61.5 33.5938 61.5 34.625V43.375Z" fill="#D2D2D2"/>
</svg>
